<svg width="103" height="102" viewBox="0 0 103 102" fill="none" xmlns="http://www.w3.org/2000/svg">
<g clip-path="url(#clip0_14_49)">
<path d="M0 88.848C0 96.1123 5.94624 102 13.281 102H89.7186C97.0546 102 103 96.1115 103 88.848V13.1524C103 5.88771 97.0538 0 89.719 0H13.2814C5.94543 0 0 5.88851 0 13.152V88.8476V88.848Z" fill="#563D7C"/>
<path d="M42.7121 45.1183V30.6737H55.5513C56.7744 30.6737 57.9533 30.7745 59.0887 30.9765C60.2241 31.1781 61.2288 31.5383 62.1023 32.0575C62.9753 32.5766 63.6742 33.2974 64.1985 34.2198C64.7223 35.1426 64.9846 36.3248 64.9846 37.7659C64.9846 40.3609 64.1985 42.2352 62.6261 43.3883C61.0542 44.5417 59.0452 45.1183 56.5994 45.1183H42.7121ZM28.999 20.1211V81.8789H59.2199C62.0149 81.8789 64.7372 81.5331 67.3866 80.841C70.0361 80.1489 72.3942 79.0823 74.4615 77.6407C76.5283 76.1992 78.1735 74.3393 79.3962 72.0618C80.6193 69.7839 81.2305 67.0881 81.2305 63.9743C81.2305 60.1107 80.2842 56.8096 78.3919 54.0708C76.4993 51.3315 73.6314 49.4142 69.7882 48.3185C72.5833 46.9925 74.6944 45.2912 76.1211 43.2153C77.5474 41.1395 78.2608 38.5448 78.2608 35.4307C78.2608 32.5476 77.7804 30.1259 76.8196 28.1651C75.8588 26.2048 74.5049 24.6334 72.7579 23.4512C71.0114 22.2691 68.9151 21.4184 66.4693 20.8996C64.0239 20.3805 61.3161 20.1211 58.3464 20.1211H28.999ZM42.7121 71.3263V54.3732H57.6475C60.6172 54.3732 63.0047 55.0505 64.81 56.406C66.6149 57.7611 67.5178 60.0242 67.5178 63.1958C67.5178 64.8106 67.241 66.1366 66.6878 67.1746C66.1345 68.2125 65.3922 69.0345 64.4604 69.6397C63.529 70.2453 62.4515 70.6776 61.2288 70.9374C60.0056 71.1964 58.725 71.3263 57.3856 71.3263H42.7121Z" fill="white"/>
</g>
<defs>
<clipPath id="clip0_14_49">
<rect width="103" height="102" fill="white"/>
</clipPath>
</defs>
</svg>
